<svg xmlns="http://www.w3.org/2000/svg" xmlns:xlink="http://www.w3.org/1999/xlink" version="1.1" width="1000" height="1000" viewBox="0 0 1000 1000" xml:space="preserve">
<desc>Created with Fabric.js 3.5.0</desc>
<defs>
</defs>
<rect x="0" y="0" width="100%" height="100%" fill="#646464"/>
<g transform="matrix(1.7622 0 0 1.7622 496.0777 498.5088)" id="139243">
<path style="stroke: none; stroke-width: 0; stroke-dasharray: none; stroke-linecap: butt; stroke-dashoffset: 0; stroke-linejoin: miter; stroke-miterlimit: 4; is-custom-font: none; font-file-url: none; fill: rgb(249,243,243); fill-rule: nonzero; opacity: 1;" vector-effect="non-scaling-stroke" transform=" translate(-256, -74.1425)" d="M 3.332 115.629 V 58.648 h 71.144 v -3.333 H 3.332 V 3.332 h 75.642 V 0 H 0 v 118.961 h 79.64 v -3.332 H 3.333 z m 140.455 -82.307 l -29.49 38.821 l -28.825 -38.82 H 81.14 l 31.157 41.32 L 78.14 118.96 h 3.999 l 32.156 -41.82 l 32.323 41.82 h 4.165 l -34.322 -44.319 l 31.323 -41.32 h -3.998 z m 16.994 114.963 V 94.97 h 0.333 c 2 7.775 5.943 14.023 11.83 18.744 c 5.887 4.72 13.384 7.081 22.492 7.081 c 5.887 0 11.108 -1.194 15.662 -3.582 s 8.358 -5.637 11.413 -9.747 c 3.054 -4.11 5.387 -8.886 6.998 -14.329 c 1.61 -5.442 2.416 -11.163 2.416 -17.16 c 0 -6.443 -0.834 -12.386 -2.5 -17.828 c -1.666 -5.443 -4.082 -10.164 -7.247 -14.162 c -3.166 -3.999 -6.998 -7.11 -11.497 -9.33 c -4.498 -2.222 -9.58 -3.333 -15.245 -3.333 c -4.332 0 -8.358 0.639 -12.079 1.916 c -3.721 1.278 -7.025 3.082 -9.913 5.415 a 36.674 36.674 0 0 0 -7.498 8.247 c -2.11 3.166 -3.721 6.637 -4.832 10.414 h -0.333 V 33.322 h -3.332 v 114.963 h 3.332 z m 34.655 -30.657 c -10.44 0 -18.827 -3.582 -25.158 -10.746 c -6.331 -7.164 -9.497 -17.467 -9.497 -30.907 c 0 -5.554 0.778 -10.83 2.333 -15.828 c 1.555 -4.998 3.804 -9.386 6.747 -13.162 c 2.944 -3.777 6.582 -6.776 10.913 -8.997 c 4.332 -2.222 9.22 -3.333 14.662 -3.333 c 5.554 0 10.414 1.111 14.579 3.333 c 4.165 2.221 7.609 5.248 10.33 9.08 s 4.776 8.22 6.165 13.162 c 1.388 4.943 2.082 10.191 2.082 15.745 c 0 4.999 -0.638 9.97 -1.916 14.912 c -1.277 4.943 -3.249 9.386 -5.915 13.33 c -2.665 3.942 -6.08 7.163 -10.246 9.663 c -4.166 2.499 -9.192 3.748 -15.079 3.748 z m 54.816 1.333 V 70.477 c 0 -4.665 0.666 -9.22 2 -13.662 c 1.332 -4.443 3.387 -8.359 6.164 -11.746 c 2.777 -3.388 6.303 -6.054 10.58 -7.998 c 4.276 -1.944 9.358 -2.749 15.245 -2.416 v -3.332 c -5.11 -0.11 -9.58 0.444 -13.412 1.666 c -3.833 1.222 -7.137 2.888 -9.914 4.999 c -2.777 2.11 -4.998 4.581 -6.664 7.414 a 33.15 33.15 0 0 0 -3.666 9.08 h -0.333 v -21.16 h -3.332 v 85.64 h 3.332 z m 38.154 -42.153 h 71.643 c 0.223 -5.887 -0.36 -11.551 -1.749 -16.994 c -1.388 -5.443 -3.61 -10.275 -6.664 -14.495 c -3.055 -4.221 -6.998 -7.609 -11.83 -10.164 c -4.832 -2.555 -10.58 -3.832 -17.244 -3.832 c -4.777 0 -9.442 1 -13.996 3 c -4.554 1.999 -8.553 4.914 -11.996 8.746 c -3.443 3.832 -6.22 8.525 -8.33 14.08 c -2.11 5.553 -3.166 11.884 -3.166 18.993 c 0 6.331 0.722 12.246 2.166 17.744 c 1.444 5.498 3.665 10.275 6.664 14.329 c 3 4.054 6.86 7.192 11.58 9.413 c 4.72 2.222 10.413 3.277 17.078 3.166 c 9.774 0 17.994 -2.75 24.658 -8.247 c 6.665 -5.499 10.608 -13.246 11.83 -23.243 h -3.332 c -1.444 9.442 -5.138 16.523 -11.08 21.243 c -5.943 4.721 -13.412 7.081 -22.41 7.081 c -6.109 0 -11.274 -1.055 -15.495 -3.165 c -4.22 -2.11 -7.664 -4.999 -10.33 -8.664 c -2.665 -3.666 -4.637 -7.97 -5.914 -12.913 c -1.278 -4.942 -1.972 -10.302 -2.083 -16.078 z m 68.311 -3.332 h -68.31 c 0.332 -5.998 1.443 -11.385 3.331 -16.161 c 1.889 -4.777 4.36 -8.859 7.415 -12.246 c 3.054 -3.388 6.609 -5.97 10.663 -7.748 c 4.054 -1.777 8.414 -2.666 13.079 -2.666 c 5.554 0 10.44 1.028 14.662 3.083 c 4.22 2.055 7.747 4.86 10.58 8.414 c 2.832 3.554 4.97 7.692 6.414 12.412 c 1.444 4.721 2.166 9.692 2.166 14.912 z m 72.477 -14.828 h 3.332 c 0 -9.553 -2.777 -16.495 -8.33 -20.827 c -5.555 -4.332 -13.108 -6.498 -22.66 -6.498 c -5.332 0 -9.83 0.667 -13.496 2 c -3.665 1.332 -6.664 3.054 -8.997 5.164 c -2.332 2.11 -3.998 4.443 -4.998 6.998 c -1 2.555 -1.5 4.999 -1.5 7.331 c 0 4.665 0.833 8.386 2.5 11.163 c 1.666 2.777 4.276 4.943 7.83 6.498 c 2.444 1.11 5.22 2.11 8.331 3 c 3.11 0.888 6.72 1.832 10.83 2.831 c 3.665 0.89 7.275 1.778 10.83 2.666 c 3.554 0.889 6.692 2.083 9.413 3.582 c 2.722 1.5 4.943 3.416 6.665 5.749 c 1.721 2.332 2.582 5.387 2.582 9.163 c 0 3.666 -0.86 6.776 -2.582 9.33 a 20.815 20.815 0 0 1 -6.581 6.249 c -2.666 1.61 -5.638 2.776 -8.914 3.498 c -3.277 0.722 -6.47 1.083 -9.58 1.083 c -10.108 0 -17.856 -2.249 -23.243 -6.747 c -5.387 -4.499 -8.08 -11.58 -8.08 -21.244 h -3.333 c 0 10.775 2.916 18.661 8.747 23.66 c 5.832 4.998 14.468 7.497 25.909 7.497 c 3.665 0 7.358 -0.417 11.08 -1.25 c 3.72 -0.833 7.053 -2.193 9.996 -4.082 a 22.592 22.592 0 0 0 7.164 -7.33 c 1.833 -3 2.75 -6.665 2.75 -10.997 c 0 -4.11 -0.806 -7.442 -2.416 -9.997 c -1.611 -2.554 -3.721 -4.665 -6.332 -6.331 c -2.61 -1.666 -5.553 -2.971 -8.83 -3.915 a 516.08 516.08 0 0 0 -9.914 -2.75 a 1726.675 1726.675 0 0 0 -12.246 -3.165 c -3.498 -0.889 -6.747 -1.944 -9.746 -3.166 c -2.888 -1.222 -5.193 -2.971 -6.915 -5.248 c -1.722 -2.277 -2.582 -5.526 -2.582 -9.747 c 0 -0.777 0.222 -2.166 0.666 -4.165 c 0.444 -2 1.5 -4.027 3.166 -6.082 c 1.666 -2.054 4.22 -3.887 7.664 -5.498 c 3.443 -1.61 8.164 -2.416 14.162 -2.416 c 4.11 0 7.858 0.445 11.246 1.333 c 3.388 0.889 6.304 2.305 8.747 4.249 c 2.444 1.944 4.332 4.415 5.665 7.414 c 1.333 3 2 6.665 2 10.997 z m 77.141 0 h 3.332 c 0 -9.553 -2.776 -16.495 -8.33 -20.827 c -5.554 -4.332 -13.107 -6.498 -22.66 -6.498 c -5.331 0 -9.83 0.667 -13.495 2 c -3.666 1.332 -6.665 3.054 -8.997 5.164 c -2.333 2.11 -3.999 4.443 -4.999 6.998 c -1 2.555 -1.499 4.999 -1.499 7.331 c 0 4.665 0.833 8.386 2.5 11.163 c 1.665 2.777 4.276 4.943 7.83 6.498 c 2.444 1.11 5.22 2.11 8.33 3 c 3.11 0.888 6.72 1.832 10.83 2.831 c 3.666 0.89 7.276 1.778 10.83 2.666 c 3.555 0.889 6.692 2.083 9.414 3.582 c 2.721 1.5 4.943 3.416 6.664 5.749 c 1.722 2.332 2.583 5.387 2.583 9.163 c 0 3.666 -0.861 6.776 -2.583 9.33 a 20.815 20.815 0 0 1 -6.58 6.249 c -2.667 1.61 -5.638 2.776 -8.915 3.498 c -3.276 0.722 -6.47 1.083 -9.58 1.083 c -10.108 0 -17.855 -2.249 -23.242 -6.747 c -5.388 -4.499 -8.081 -11.58 -8.081 -21.244 h -3.332 c 0 10.775 2.915 18.661 8.747 23.66 c 5.831 4.998 14.467 7.497 25.908 7.497 c 3.666 0 7.359 -0.417 11.08 -1.25 c 3.72 -0.833 7.053 -2.193 9.997 -4.082 a 22.592 22.592 0 0 0 7.164 -7.33 c 1.833 -3 2.749 -6.665 2.749 -10.997 c 0 -4.11 -0.805 -7.442 -2.416 -9.997 c -1.61 -2.554 -3.72 -4.665 -6.331 -6.331 c -2.61 -1.666 -5.554 -2.971 -8.83 -3.915 a 516.071 516.071 0 0 0 -9.914 -2.75 a 1726.65 1726.65 0 0 0 -12.246 -3.165 c -3.499 -0.889 -6.748 -1.944 -9.747 -3.166 c -2.888 -1.222 -5.193 -2.971 -6.914 -5.248 c -1.722 -2.277 -2.583 -5.526 -2.583 -9.747 c 0 -0.777 0.222 -2.166 0.667 -4.165 c 0.444 -2 1.5 -4.027 3.165 -6.082 c 1.666 -2.054 4.221 -3.887 7.664 -5.498 c 3.444 -1.61 8.164 -2.416 14.163 -2.416 c 4.11 0 7.858 0.445 11.246 1.333 c 3.388 0.889 6.303 2.305 8.747 4.249 c 2.444 1.944 4.332 4.415 5.665 7.414 c 1.333 3 2 6.665 2 10.997 z" stroke-linecap="round"/>
</g>
</svg>